<?xml version="1.0" encoding="UTF-8"?>
<svg xmlns="http://www.w3.org/2000/svg" xmlns:xlink="http://www.w3.org/1999/xlink" width="500px" height="500px" viewBox="0 0 500 500" version="1.1">
<g id="surface1">
<path style=" stroke:none;fill-rule:nonzero;fill:rgb(0%,0%,0%);fill-opacity:1;" d="M 163.25 300.945312 C 163.25 306.601562 167.898438 311.25 173.554688 311.25 L 327.597656 311.25 C 333.25 311.25 337.898438 306.601562 337.898438 300.945312 C 337.898438 295.304688 333.25 290.65625 327.597656 290.65625 L 173.554688 290.65625 C 167.851562 290.65625 163.25 295.304688 163.25 300.945312 Z M 327.597656 342.804688 L 173.554688 342.804688 C 167.898438 342.804688 163.25 347.453125 163.25 353.09375 C 163.25 358.75 167.898438 363.398438 173.554688 363.398438 L 327.597656 363.398438 C 333.25 363.398438 337.898438 358.75 337.898438 353.09375 C 337.898438 347.453125 333.25 342.804688 327.597656 342.804688 Z M 327.597656 342.804688 "/>
<path style=" stroke:none;fill-rule:nonzero;fill:rgb(0%,0%,0%);fill-opacity:1;" d="M 286.601562 80.996094 L 133.046875 80.996094 C 121.699219 80.996094 112.453125 90.253906 112.453125 101.601562 L 112.453125 398.398438 C 112.453125 409.746094 121.699219 419.003906 133.046875 419.003906 L 367 419.003906 C 378.351562 419.003906 387.597656 409.746094 387.597656 398.398438 L 387.597656 182 Z M 300 123.554688 L 347.453125 170.996094 L 303.554688 170.996094 C 301.648438 170.996094 300 169.34375 300 167.453125 Z M 366.953125 398.351562 C 366.953125 398.351562 366.953125 398.398438 366.953125 398.351562 L 133.046875 398.398438 C 133.046875 398.398438 133 398.398438 133 398.351562 L 133 101.648438 C 133 101.648438 133 101.601562 133.046875 101.601562 L 278.554688 101.601562 L 279.34375 102.402344 L 279.34375 167.402344 C 279.34375 180.703125 290.253906 191.554688 303.496094 191.554688 L 366.953125 191.554688 Z M 366.953125 398.351562 "/>
<path style=" stroke:none;fill-rule:nonzero;fill:rgb(0%,0%,0%);fill-opacity:1;" d="M 209.40625 189.804688 C 227.546875 189.804688 242.246094 175.097656 242.246094 156.953125 C 242.246094 138.796875 227.546875 124.101562 209.40625 124.101562 C 191.25 124.101562 176.503906 138.75 176.503906 156.953125 C 176.503906 175.097656 191.203125 189.804688 209.40625 189.804688 Z M 209.40625 142.101562 C 217.597656 142.101562 224.25 148.75 224.25 156.953125 C 224.25 165.148438 217.597656 171.796875 209.40625 171.796875 C 201.203125 171.796875 194.550781 165.148438 194.550781 156.953125 C 194.550781 148.75 201.203125 142.101562 209.40625 142.101562 Z M 173.554688 246.445312 C 179.25 246.445312 183.847656 241.84375 183.847656 236.152344 C 183.847656 225 195.546875 215.546875 209.40625 215.546875 C 223.25 215.546875 234.953125 224.953125 234.953125 236.152344 C 234.953125 241.84375 239.550781 246.445312 245.253906 246.445312 C 250.945312 246.445312 255.546875 241.84375 255.546875 236.152344 C 255.546875 213.445312 234.851562 194.953125 209.40625 194.953125 C 183.945312 194.953125 163.25 213.445312 163.25 236.152344 C 163.25 241.84375 167.851562 246.445312 173.554688 246.445312 Z M 173.554688 246.445312 "/>
</g>
</svg>
